# xmcd CD database file
#
# Track frame offsets:
#	150
#	26150
#	46482
#	60642
#	74990
#	102727
#	109232
#	156445
#	176582
#
# Disc length: 2712 seconds
#
# Revision: 4
# Processed by: cddbd v1.5.2PL0 Copyright (c) Steve Scherf et al.
# Submitted via: CDex 2.02
#
DISCID=8c0a9609
DTITLE=Santana - Blues for Salavador
DYEAR=1987
DGENRE=Rock
TTITLE0=Bailando Aquatic Park
TTITLE1=Bella
TTITLE2=I'm Gone
TTITLE3='Trane
TTITLE4=Deeper, Dig Deeper
TTITLE5=Mingus
TTITLE6=Now That You Know
TTITLE7=Hannibal
TTITLE8=Blues for Salvador
EXTD=YEAR: 1987
EXTT0=
EXTT1=
EXTT2=
EXTT3=
EXTT4=
EXTT5=
EXTT6=
EXTT7=
EXTT8=
PLAYORDER=
